# AST/ASF file generated using VICON BodyLanguage
# -----------------------------------------------
:version 1.10
:name VICON
:units
  mass 1.0
  length 0.45
  angle deg
:documentation
   .ast/.asf automatically generated from VICON data using
   VICON BodyBuilder and BodyLanguage model FoxedUp or BRILLIANT.MOD
:root
   order TX TY TZ RX RY RZ
   axis XYZ
   position 0 0 0  
   orientation 0 0 0 
:bonedata
  begin
     id 1 
     name lhipjoint
     direction 0.440178 -0.822639 0.359871 
     length 2.53113 
     axis 0 0 0  XYZ
  end
  begin
     id 2 
     name lfemur
     direction 0.34202 -0.939693 0  
     length 7.88132  
     axis 0 0 20  XYZ
    dof rx ry rz
    limits (-160.0 20.0)
           (-70.0 70.0)
           (-60.0 70.0)
  end
  begin
     id 3 
     name ltibia
     direction 0.34202 -0.939693 0   
     length 8.43783   
     axis 0 0 20   XYZ
    dof rx
    limits (-10.0 170.0)
  end
  begin
     id 4 
     name lfoot
     direction 0.0886351 -0.243523 0.965837   
     length 2.63414   
     axis -90 7.62852e-016 20   XYZ
    dof rx rz
    limits (-45.0 90.0)
           (-70.0 20.0)
  end
  begin
     id 5 
     name ltoes
     direction 1.53703e-011 -4.21717e-011 1   
     length 1.31427   
     axis -90 7.62852e-016 20   XYZ
    dof rx
    limits (-90.0 20.0)
  end
  begin
     id 6 
     name rhipjoint
     direction -0.399779 -0.839773 0.367367   
     length 2.47948  
     axis 0 0 0  XYZ 
  end
  begin
     id 7 
     name rfemur
     direction -0.34202 -0.939693 0   
     length 7.74806   
     axis 0 0 -20   XYZ
    dof rx ry rz
    limits (-160.0 20.0)
           (-70.0 70.0)
           (-70.0 60.0)
  end
  begin
     id 8 
     name rtibia
     direction -0.34202 -0.939693 0   
     length 8.74432   
     axis 0 0 -20   XYZ
    dof rx
    limits (-10.0 170.0)
 end
 begin
     id 9 
     name rfoot
     direction -0.108514 -0.298139 0.948334   
     length 2.66102  
     axis -90 -7.62852e-016 -20   XYZ
    dof rx rz
    limits (-45.0 90.0)
           (-20.0 70.0)
  end
  begin
     id 10 
     name rtoes
     direction -1.53392e-011 -4.22077e-011 1   
     length 1.31983   
     axis -90 -7.62852e-016 -20   XYZ
    dof rx
    limits (-90.0 20.0)
  end
  begin
     id 11 
     name lowerback
     direction 0.0113257 0.999866 0.0118602   
     length 2.58694   
     axis 0 0 0   XYZ
    dof rx ry rz
    limits (-20.0 45.0)
           (-30.0 30.0)
           (-30.0 30.0)
  end
  begin
     id 12 
     name upperback
     direction -0.0164747 0.995193 -0.0965375   
     length 2.52368   
     axis 0 0 0   XYZ
    dof rx ry rz
    limits (-20.0 45.0)
           (-30.0 30.0)
           (-30.0 30.0)
  end
  begin
     id 13 
     name thorax
     direction -0.0194301 0.99433 -0.104552   
     length 2.56099   
     axis 0 0 0   XYZ
    dof rx ry rz
    limits (-20.0 45.0)
           (-30.0 30.0)
           (-30.0 30.0)
  end
  begin
     id 14 
     name lowerneck
     direction 0.0148543 0.995587 -0.092657   
     length 1.71582   
     axis 0 0 0   XYZ
    dof rx ry rz
    limits (-20.0 45.0)
           (-30.0 30.0)
           (-30.0 30.0)
  end
  begin
     id 15 
     name upperneck
     direction -0.0135467 0.993656 -0.111639   
     length 1.68937   
     axis 0 0 0   XYZ
    dof rx ry rz
    limits (-20.0 45.0)
           (-30.0 30.0)
           (-30.0 30.0)
  end
  begin
     id 16
     name head
     direction -0.00615349 0.999547 -0.029448  
     length 1.7462  
     axis 0 0 0   XYZ
    dof rx ry rz
    limits (-20.0 45.0)
           (-30.0 30.0)
           (-30.0 30.0)
  end
  begin
     id 17 
     name lclavicle
     direction 0.988267 0.149885 0.0293713  
     length 4.47222  
     axis 0 0 0   XYZ
    dof ry rz
    limits (-20.0 10.0)
           (0.0 20.0)
  end
  begin
     id 18 
     name lhumerus
     direction 1 -4.48986e-011 -1.14833e-027   
     length 5.37148   
     axis 180 -30 -90   XYZ
    dof rx ry rz
    limits (-60.0 90.0)
           (-90.0 90.0)
           (-90.0 90.0)
  end
  begin
     id 19
     name lradius
     direction 0.999998 0.00170963 -0.000987055   
     length 3.94212   
     axis 180 -30 -90   XYZ
    dof rx
    limits (-10.0 170.0)
  end
  begin
     id 20
     name lwrist
     direction 0.999998 7.53149e-005 -0.00194706   
     length 1.97106   
     axis 4.65056e-015 90 90   XYZ
    dof ry
    limits (-180.0 0.0)
 end
  begin
     id 21 
     name lhand
     direction 1 -4.48973e-011 -1.31746e-026   
     length 1.17917   
     axis 8.4065e-015 90 90   XYZ
    dof rx rz
    limits (-90.0 90.0)
           (-45.0 45.0)
  end
  begin
     id 22 
     name lfingers
     direction 1 -4.49107e-011 -2.63492e-026   
     length 0.950679   
     axis 1.6813e-014 90 90   XYZ
    dof rx
    limits (0.0 90.0)
  end
  begin
     id 23
     name lthumb
     direction 0.707107 -6.35048e-011 0.707107   
     length 1.36499   
     axis -90 45 2.85299e-015   XYZ
    dof rx rz
    limits (-45.0 45.0)
           (-45.0 45.0)
  end
  begin
     id 24 
     name rclavicle
     direction -0.996699 0.0642895 -0.0495725   
     length 4.62611  
     axis 0 0 0   XYZ 
    dof ry rz
    limits (-10.0 20.0)
           (-20.0 0.0)
  end
  begin
     id 25 
     name rhumerus
     direction -1 -4.48919e-011 -2.41059e-027  
     length 5.4981   
     axis 180 30 90   XYZ
    dof rx ry rz
    limits (-90.0 60.0)
           (-90.0 90.0)
           (-90.0 90.0)
  end
  begin
     id 26 
     name rradius
     direction -0.999999 0.00118101 -0.000681858   
     length 3.48381   
     axis 180 30 90   XYZ
    dof rx
    limits (-10.0 170.0)
  end
  begin
     id 27 
     name rwrist
     direction -0.999999 0.000321823 -0.00132288   
     length 1.7419   
     axis 4.65056e-015 -90 -90   XYZ
    dof ry
    limits (-180.0 0.0)
  end
  begin
     id 28
     name rhand
     direction -1 -4.49022e-011 -1.31746e-026   
     length 1.34932   
     axis 8.4065e-015 -90 -90   XYZ
    dof rx rz
    limits (-90.0 90.0)
           (-45.0 45.0)
  end
  begin
     id 29
     name rfingers
     direction -1 -4.49178e-011 -2.63492e-026   
     length 1.08785   
     axis 1.6813e-014 -90 -90   XYZ
    dof rx
    limits (0.0 90.0)
  end
  begin
     id 30
     name rthumb
     direction -0.707107 -6.34713e-011 0.707107   
     length 1.56195   
     axis -90 -45 -2.85299e-015   XYZ
    dof rx rz
    limits (-45.0 45.0)
           (-45.0 45.0)
  end
:hierarchy
  begin
    root lhipjoint rhipjoint lowerback
    lhipjoint lfemur
    lfemur ltibia
    ltibia lfoot
    lfoot ltoes
    rhipjoint rfemur
    rfemur rtibia
    rtibia rfoot
    rfoot rtoes
    lowerback upperback
    upperback thorax
    thorax lowerneck lclavicle rclavicle
    lowerneck upperneck
    upperneck head
    lclavicle lhumerus
    lhumerus lradius
    lradius lwrist
    lwrist lhand lthumb
    lhand lfingers
    rclavicle rhumerus
    rhumerus rradius
    rradius rwrist
    rwrist rhand rthumb
    rhand rfingers
  end

#!OML:ASF X:\für Bonn\!DataBase\2005_08_10_Bjorn_Final\c3d\bjorn.ASF
:FULLY-SPECIFIED
:DEGREES
1
root 24.9834 19.1723 -1.56421 -13.007 -77.4298 -349.851
lowerback 0.104632 -0.304566 8.46887
upperback 9.48256 -1.32187 1.58698
thorax 9.96939 -0.151358 -3.15554
lowerneck 1.45913 -2.01929 5.00189
upperneck 27.6156 -3.09727 -5.1058
head 8.12761 -1.78593 -2.82865
rclavicle 9.54166e-015 0
rhumerus -22.7748 -18.7637 -82.0929
rradius 23.9928
rwrist 2.72592
rhand -13.9707 11.361
rfingers 7.12502
rthumb 12.1574 -18.2657
lclavicle 9.54166e-015 0
lhumerus -21.3839 11.2246 86.595
lradius 17.6354
lwrist -46.1108
lhand -6.79517 -6.3662
lfingers 7.12502
lthumb 19.0678 22.7191
rfemur -20.4534 -11.2805 14.755
rtibia 30.0946
rfoot -0.246549 12.0858
rtoes -6.08488
lfemur 6.04518 1.27904 -14.2763
ltibia 50.5775
lfoot 17.2236 4.07902
ltoes -8.76313
2
root 24.9018 19.1952 -1.57642 -12.9493 -77.4317 -349.776
lowerback 0.278273 -0.219111 8.58322
upperback 9.53563 -1.20833 1.64557
thorax 9.94308 -0.0916668 -3.14461
lowerneck 1.37305 -2.05711 4.81722
upperneck 27.5993 -3.15545 -5.00488
head 8.13939 -1.81919 -2.76669
rclavicle -2.54444e-014 1.11319e-014
rhumerus -22.3107 -17.7282 -82.4035
rradius 24.8645
rwrist 1.74653
rhand -14.3142 11.6025
rfingers 7.12502
rthumb 11.8261 -18.0436
lclavicle -2.54444e-014 1.11319e-014
lhumerus -21.8047 11.3656 86.5487
lradius 17.6782
lwrist -46.3218
lhand -6.10381 -6.19202
lfingers 7.12502
lthumb 19.7326 22.8264
rfemur -20.1816 -11.324 14.8261
rtibia 29.8349
rfoot -0.382903 12.1485
rtoes -5.83507
lfemur 4.94771 1.84084 -14.2145
ltibia 51.4493
lfoot 16.7324 4.11277
ltoes -7.69848
3
root 24.8243 19.2162 -1.58735 -13.2238 -77.4456 -349.38
lowerback 0.48942 -0.122331 8.66347
upperback 9.59451 -1.06965 1.65966
thorax 9.90297 -0.0204027 -3.16056
lowerneck 1.27967 -2.10143 4.64796
upperneck 27.6021 -3.23422 -4.86254
head 8.15928 -1.8571 -2.69547
rclavicle 9.54166e-015 -1.11319e-014
rhumerus -21.8689 -16.7532 -82.6996
rradius 25.7546
rwrist 0.847328
rhand -14.5752 11.691
rfingers 7.12502
rthumb 11.5744 -17.9694
lclavicle 9.54166e-015 -1.11319e-014
lhumerus -22.2038 11.3315 86.516
lradius 17.7399
lwrist -46.296
lhand -5.52877 -5.96466
lfingers 7.12502
lthumb 20.2853 22.996
rfemur -19.9301 -11.3775 14.8163
rtibia 29.6107
rfoot -0.480053 12.264
rtoes -5.52416
lfemur 3.87259 2.40675 -14.2551
ltibia 52.2498
lfoot 15.999 3.8829
ltoes -7.04031
4
root 24.7515 19.2353 -1.59809 -13.5489 -77.4333 -348.922
lowerback 0.713096 -0.02165 8.73581
upperback 9.64489 -0.920372 1.65311
thorax 9.84692 0.0560969 -3.19397
lowerneck 1.22728 -2.16547 4.52189
upperneck 27.5643 -3.33961 -4.72156
head 8.15602 -1.90305 -2.63154
rclavicle 0 1.11319e-014
rhumerus -21.4429 -15.879 -82.9579
rradius 26.5915
rwrist 0.00632242
rhand -14.7996 11.7569
rfingers 7.12502
rthumb 11.358 -17.9155
lclavicle 0 1.11319e-014
lhumerus -22.5589 11.0298 86.5249
lradius 17.837
lwrist -45.9792
lhand -5.00077 -5.79119
lfingers 7.12502
lthumb 20.7927 23.1147
rfemur -19.714 -11.4941 14.7876
rtibia 29.4129
rfoot -0.605279 12.415
rtoes -5.48125
lfemur 2.76952 2.9896 -14.316
ltibia 53.0029
lfoot 15.0127 3.29377
ltoes -7.26776
5
root 24.6804 19.2536 -1.60805 -13.8131 -77.4324 -348.527
lowerback 0.941383 0.0914328 8.84707
upperback 9.68251 -0.752794 1.63518
thorax 9.77728 0.144942 -3.26053
lowerneck 1.25422 -2.24127 4.43959
upperneck 27.4928 -3.45748 -4.59749
head 8.12561 -1.95216 -2.57889
rclavicle -1.98785e-014 -3.97569e-014
rhumerus -21.0805 -15.0944 -83.1764
rradius 27.4407
rwrist -0.745272
rhand -14.9912 11.707
rfingers 7.12502
rthumb 11.1732 -17.9755
lclavicle -1.98785e-014 -3.97569e-014
lhumerus -22.9357 10.6901 86.5255
lradius 17.9746
lwrist -45.6036
lhand -4.58381 -5.61765
lfingers 7.12502
lthumb 21.1932 23.2439
rfemur -19.5095 -11.5606 14.7632
rtibia 29.218
rfoot -0.699748 12.5147
rtoes -5.05801
lfemur 1.68316 3.59836 -14.3764
ltibia 53.6908
lfoot 13.8436 2.40644
ltoes -8.30063
